<svg width="1380" height="431" viewBox="0 0 1380 431" fill="none" xmlns="http://www.w3.org/2000/svg">
<rect x="60" y="311" width="60" height="60" fill="#7861FF"/>
<rect x="60" y="311" width="60" height="60" stroke="#7861FF"/>
<rect x="60" y="371" width="60" height="60" fill="#7861FF"/>
<rect x="60" y="371" width="60" height="60" stroke="#7861FF"/>
<rect y="371" width="60" height="60" fill="#7861FF"/>
<rect y="371" width="60" height="60" stroke="#7861FF"/>
<rect x="120" y="371" width="60" height="60" fill="#7861FF"/>
<rect x="120" y="371" width="60" height="60" stroke="#7861FF"/>
<rect x="780" y="311" width="60" height="60" fill="#7861FF"/>
<rect x="780" y="311" width="60" height="60" stroke="#7861FF"/>
<rect x="780" y="371" width="60" height="60" fill="#7861FF"/>
<rect x="780" y="371" width="60" height="60" stroke="#7861FF"/>
<rect x="720" y="371" width="60" height="60" fill="#7861FF"/>
<rect x="720" y="371" width="60" height="60" stroke="#7861FF"/>
<rect x="840" y="371" width="60" height="60" fill="#7861FF"/>
<rect x="840" y="371" width="60" height="60" stroke="#7861FF"/>
<rect x="60" y="191" width="60" height="60" fill="#19E76C"/>
<rect x="60" y="191" width="60" height="60" stroke="#19E76C"/>
<rect x="60" y="251" width="60" height="60" fill="#19E76C"/>
<rect x="60" y="251" width="60" height="60" stroke="#19E76C"/>
<rect x="120" y="311" width="60" height="60" fill="#19E76C"/>
<rect x="120" y="311" width="60" height="60" stroke="#19E76C"/>
<rect x="120" y="251" width="60" height="60" fill="#19E76C"/>
<rect x="120" y="251" width="60" height="60" stroke="#19E76C"/>
<rect x="180" y="311" width="60" height="60" fill="#FFC24A"/>
<rect x="180" y="311" width="60" height="60" stroke="#FFC24A"/>
<rect x="240" y="311" width="60" height="60" fill="#FFC24A"/>
<rect x="240" y="311" width="60" height="60" stroke="#FFC24A"/>
<rect x="240" y="371" width="60" height="60" fill="#FFC24A"/>
<rect x="240" y="371" width="60" height="60" stroke="#FFC24A"/>
<rect x="180" y="371" width="60" height="60" fill="#FFC24A"/>
<rect x="180" y="371" width="60" height="60" stroke="#FFC24A"/>
<rect x="180" y="311" width="60" height="60" fill="#FFC24A"/>
<rect x="180" y="311" width="60" height="60" stroke="#FFC24A"/>
<rect x="240" y="311" width="60" height="60" fill="#FFC24A"/>
<rect x="240" y="311" width="60" height="60" stroke="#FFC24A"/>
<rect x="240" y="371" width="60" height="60" fill="#FFC24A"/>
<rect x="240" y="371" width="60" height="60" stroke="#FFC24A"/>
<rect x="180" y="371" width="60" height="60" fill="#FFC24A"/>
<rect x="180" y="371" width="60" height="60" stroke="#FFC24A"/>
<rect x="180" y="311" width="60" height="60" fill="#FFC24A"/>
<rect x="180" y="311" width="60" height="60" stroke="#FFC24A"/>
<rect x="240" y="311" width="60" height="60" fill="#FFC24A"/>
<rect x="240" y="311" width="60" height="60" stroke="#FFC24A"/>
<rect x="240" y="371" width="60" height="60" fill="#FFC24A"/>
<rect x="240" y="371" width="60" height="60" stroke="#FFC24A"/>
<rect x="180" y="371" width="60" height="60" fill="#FFC24A"/>
<rect x="180" y="371" width="60" height="60" stroke="#FFC24A"/>
<rect x="180" y="311" width="60" height="60" fill="#FFC24A"/>
<rect x="180" y="311" width="60" height="60" stroke="#FFC24A"/>
<rect x="240" y="311" width="60" height="60" fill="#FFC24A"/>
<rect x="240" y="311" width="60" height="60" stroke="#FFC24A"/>
<rect x="240" y="371" width="60" height="60" fill="#FFC24A"/>
<rect x="240" y="371" width="60" height="60" stroke="#FFC24A"/>
<rect x="180" y="371" width="60" height="60" fill="#FFC24A"/>
<rect x="180" y="371" width="60" height="60" stroke="#FFC24A"/>
<rect x="960" y="371" width="60" height="60" transform="rotate(-90 960 371)" fill="#7861FF"/>
<rect x="960" y="371" width="60" height="60" transform="rotate(-90 960 371)" stroke="#7861FF"/>
<rect x="1020" y="371" width="60" height="60" transform="rotate(-90 1020 371)" fill="#7861FF"/>
<rect x="1020" y="371" width="60" height="60" transform="rotate(-90 1020 371)" stroke="#7861FF"/>
<rect x="1020" y="431" width="60" height="60" transform="rotate(-90 1020 431)" fill="#7861FF"/>
<rect x="1020" y="431" width="60" height="60" transform="rotate(-90 1020 431)" stroke="#7861FF"/>
<rect x="1020" y="311" width="60" height="60" transform="rotate(-90 1020 311)" fill="#7861FF"/>
<rect x="1020" y="311" width="60" height="60" transform="rotate(-90 1020 311)" stroke="#7861FF"/>
<rect x="420" y="371" width="60" height="60" transform="rotate(-90 420 371)" fill="#FE955A"/>
<rect x="420" y="371" width="60" height="60" transform="rotate(-90 420 371)" stroke="#FE955A"/>
<rect x="360" y="371" width="60" height="60" transform="rotate(-90 360 371)" fill="#FE955A"/>
<rect x="360" y="371" width="60" height="60" transform="rotate(-90 360 371)" stroke="#FE955A"/>
<rect x="300" y="371" width="60" height="60" transform="rotate(-90 300 371)" fill="#FE955A"/>
<rect x="300" y="371" width="60" height="60" transform="rotate(-90 300 371)" stroke="#FE955A"/>
<rect x="300" y="431" width="60" height="60" transform="rotate(-90 300 431)" fill="#FE955A"/>
<rect x="300" y="431" width="60" height="60" transform="rotate(-90 300 431)" stroke="#FE955A"/>
<rect x="360" y="431" width="60" height="60" transform="rotate(-90 360 431)" fill="#2AB3FF"/>
<rect x="360" y="431" width="60" height="60" transform="rotate(-90 360 431)" stroke="#2AB3FF"/>
<rect x="420" y="431" width="60" height="60" transform="rotate(-90 420 431)" fill="#2AB3FF"/>
<rect x="420" y="431" width="60" height="60" transform="rotate(-90 420 431)" stroke="#2AB3FF"/>
<rect x="480" y="431" width="60" height="60" transform="rotate(-90 480 431)" fill="#2AB3FF"/>
<rect x="480" y="431" width="60" height="60" transform="rotate(-90 480 431)" stroke="#2AB3FF"/>
<rect x="540" y="431" width="60" height="60" transform="rotate(-90 540 431)" fill="#2AB3FF"/>
<rect x="540" y="431" width="60" height="60" transform="rotate(-90 540 431)" stroke="#2AB3FF"/>
<rect x="960" y="431" width="60" height="60" transform="rotate(-90 960 431)" fill="#F86464"/>
<rect x="960" y="431" width="60" height="60" transform="rotate(-90 960 431)" stroke="#F86464"/>
<rect x="840" y="371" width="60" height="60" transform="rotate(-90 840 371)" fill="#F86464"/>
<rect x="840" y="371" width="60" height="60" transform="rotate(-90 840 371)" stroke="#F86464"/>
<rect x="900" y="431" width="60" height="60" transform="rotate(-90 900 431)" fill="#F86464"/>
<rect x="900" y="431" width="60" height="60" transform="rotate(-90 900 431)" stroke="#F86464"/>
<rect x="900" y="371" width="60" height="60" transform="rotate(-90 900 371)" fill="#F86464"/>
<rect x="900" y="371" width="60" height="60" transform="rotate(-90 900 371)" stroke="#F86464"/>
<rect x="660" y="371" width="60" height="60" fill="#F86464"/>
<rect x="660" y="371" width="60" height="60" stroke="#F86464"/>
<rect x="720" y="251" width="60" height="60" fill="#F86464"/>
<rect x="720" y="251" width="60" height="60" stroke="#F86464"/>
<rect x="660" y="311" width="60" height="60" fill="#F86464"/>
<rect x="660" y="311" width="60" height="60" stroke="#F86464"/>
<rect x="720" y="311" width="60" height="60" fill="#F86464"/>
<rect x="720" y="311" width="60" height="60" stroke="#F86464"/>
<rect x="544" y="251" width="60" height="60" fill="#FFC24A"/>
<rect x="544" y="251" width="60" height="60" stroke="#FFC24A"/>
<rect x="604" y="251" width="60" height="60" fill="#FFC24A"/>
<rect x="604" y="251" width="60" height="60" stroke="#FFC24A"/>
<rect x="604" y="311" width="60" height="60" fill="#FFC24A"/>
<rect x="604" y="311" width="60" height="60" stroke="#FFC24A"/>
<rect x="544" y="311" width="60" height="60" fill="#FFC24A"/>
<rect x="544" y="311" width="60" height="60" stroke="#FFC24A"/>
<rect x="544" y="251" width="60" height="60" fill="#FFC24A"/>
<rect x="544" y="251" width="60" height="60" stroke="#FFC24A"/>
<rect x="604" y="251" width="60" height="60" fill="#FFC24A"/>
<rect x="604" y="251" width="60" height="60" stroke="#FFC24A"/>
<rect x="604" y="311" width="60" height="60" fill="#FFC24A"/>
<rect x="604" y="311" width="60" height="60" stroke="#FFC24A"/>
<rect x="544" y="311" width="60" height="60" fill="#FFC24A"/>
<rect x="544" y="311" width="60" height="60" stroke="#FFC24A"/>
<rect x="544" y="251" width="60" height="60" fill="#FFC24A"/>
<rect x="544" y="251" width="60" height="60" stroke="#FFC24A"/>
<rect x="604" y="251" width="60" height="60" fill="#FFC24A"/>
<rect x="604" y="251" width="60" height="60" stroke="#FFC24A"/>
<rect x="604" y="311" width="60" height="60" fill="#FFC24A"/>
<rect x="604" y="311" width="60" height="60" stroke="#FFC24A"/>
<rect x="544" y="311" width="60" height="60" fill="#FFC24A"/>
<rect x="544" y="311" width="60" height="60" stroke="#FFC24A"/>
<rect x="544" y="251" width="60" height="60" fill="#FFC24A"/>
<rect x="544" y="251" width="60" height="60" stroke="#FFC24A"/>
<rect x="604" y="251" width="60" height="60" fill="#FFC24A"/>
<rect x="604" y="251" width="60" height="60" stroke="#FFC24A"/>
<rect x="604" y="311" width="60" height="60" fill="#FFC24A"/>
<rect x="604" y="311" width="60" height="60" stroke="#FFC24A"/>
<rect x="544" y="311" width="60" height="60" fill="#FFC24A"/>
<rect x="544" y="311" width="60" height="60" stroke="#FFC24A"/>
<rect x="1080" y="431" width="60" height="60" transform="rotate(-90 1080 431)" fill="#19E76C"/>
<rect x="1080" y="431" width="60" height="60" transform="rotate(-90 1080 431)" stroke="#19E76C"/>
<rect x="1140" y="431" width="60" height="60" transform="rotate(-90 1140 431)" fill="#19E76C"/>
<rect x="1140" y="431" width="60" height="60" transform="rotate(-90 1140 431)" stroke="#19E76C"/>
<rect x="1200" y="371" width="60" height="60" transform="rotate(-90 1200 371)" fill="#19E76C"/>
<rect x="1200" y="371" width="60" height="60" transform="rotate(-90 1200 371)" stroke="#19E76C"/>
<rect x="1140" y="371" width="60" height="60" transform="rotate(-90 1140 371)" fill="#19E76C"/>
<rect x="1140" y="371" width="60" height="60" transform="rotate(-90 1140 371)" stroke="#19E76C"/>
<rect x="240" width="60" height="60" fill="#7861FF"/>
<rect x="240" width="60" height="60" stroke="#7861FF"/>
<rect x="240" y="60" width="60" height="60" fill="#7861FF"/>
<rect x="240" y="60" width="60" height="60" stroke="#7861FF"/>
<rect x="180" y="60" width="60" height="60" fill="#7861FF"/>
<rect x="180" y="60" width="60" height="60" stroke="#7861FF"/>
<rect x="300" y="60" width="60" height="60" fill="#7861FF"/>
<rect x="300" y="60" width="60" height="60" stroke="#7861FF"/>
<rect x="1260" y="371" width="60" height="60" transform="rotate(90 1260 371)" fill="#FE955A"/>
<rect x="1260" y="371" width="60" height="60" transform="rotate(90 1260 371)" stroke="#FE955A"/>
<rect x="1320" y="371" width="60" height="60" transform="rotate(90 1320 371)" fill="#FE955A"/>
<rect x="1320" y="371" width="60" height="60" transform="rotate(90 1320 371)" stroke="#FE955A"/>
<rect x="1380" y="371" width="60" height="60" transform="rotate(90 1380 371)" fill="#FE955A"/>
<rect x="1380" y="371" width="60" height="60" transform="rotate(90 1380 371)" stroke="#FE955A"/>
<rect x="1380" y="311" width="60" height="60" transform="rotate(90 1380 311)" fill="#FE955A"/>
<rect x="1380" y="311" width="60" height="60" transform="rotate(90 1380 311)" stroke="#FE955A"/>
<rect x="1320" y="251" width="60" height="60" transform="rotate(90 1320 251)" fill="#2E68FF"/>
<rect x="1320" y="251" width="60" height="60" transform="rotate(90 1320 251)" stroke="#2E68FF"/>
<rect x="1320" y="311" width="60" height="60" transform="rotate(90 1320 311)" fill="#2E68FF"/>
<rect x="1320" y="311" width="60" height="60" transform="rotate(90 1320 311)" stroke="#2E68FF"/>
<rect x="1260" y="251" width="60" height="60" transform="rotate(90 1260 251)" fill="#2E68FF"/>
<rect x="1260" y="251" width="60" height="60" transform="rotate(90 1260 251)" stroke="#2E68FF"/>
<rect x="1200" y="251" width="60" height="60" transform="rotate(90 1200 251)" fill="#2E68FF"/>
<rect x="1200" y="251" width="60" height="60" transform="rotate(90 1200 251)" stroke="#2E68FF"/>
<rect x="1140" y="251" width="60" height="60" transform="rotate(-90 1140 251)" fill="#2E68FF"/>
<rect x="1140" y="251" width="60" height="60" transform="rotate(-90 1140 251)" stroke="#2E68FF"/>
<rect x="1140" y="191" width="60" height="60" transform="rotate(-90 1140 191)" fill="#2E68FF"/>
<rect x="1140" y="191" width="60" height="60" transform="rotate(-90 1140 191)" stroke="#2E68FF"/>
<rect x="1200" y="251" width="60" height="60" transform="rotate(-90 1200 251)" fill="#2E68FF"/>
<rect x="1200" y="251" width="60" height="60" transform="rotate(-90 1200 251)" stroke="#2E68FF"/>
<rect x="1260" y="251" width="60" height="60" transform="rotate(-90 1260 251)" fill="#2E68FF"/>
<rect x="1260" y="251" width="60" height="60" transform="rotate(-90 1260 251)" stroke="#2E68FF"/>
<rect x="1080" y="311" width="60" height="60" fill="#FE955A"/>
<rect x="1080" y="311" width="60" height="60" stroke="#FE955A"/>
<rect x="1080" y="251" width="60" height="60" fill="#FE955A"/>
<rect x="1080" y="251" width="60" height="60" stroke="#FE955A"/>
<rect x="1080" y="191" width="60" height="60" fill="#FE955A"/>
<rect x="1080" y="191" width="60" height="60" stroke="#FE955A"/>
<rect x="1020" y="191" width="60" height="60" fill="#FE955A"/>
<rect x="1020" y="191" width="60" height="60" stroke="#FE955A"/>
</svg>
