<svg width="19" height="25" viewBox="0 0 19 25" fill="none" xmlns="http://www.w3.org/2000/svg">
<g id="User">
<path id="Vector" d="M9.49986 10.8571C12.498 10.8571 14.9284 8.42669 14.9284 5.42857C14.9284 2.43045 12.498 0 9.49986 0C6.50174 0 4.07129 2.43045 4.07129 5.42857C4.07129 8.42669 6.50174 10.8571 9.49986 10.8571Z" fill="white"/>
<path id="Vector_2" d="M18.8568 18.3936L18.5706 17.8198C17.7283 16.1353 16.4336 14.7186 14.8316 13.7284C13.2295 12.7383 11.3833 12.2139 9.5 12.2139C7.61665 12.2139 5.77051 12.7383 4.16844 13.7284C2.56637 14.7186 1.27166 16.1353 0.4294 17.8198L0.143179 18.3929C0.0488733 18.5814 -0.000153242 18.7892 3.59817e-07 19V23.0714C3.59817e-07 23.4313 0.142985 23.7765 0.397499 24.031C0.652012 24.2856 0.997206 24.4285 1.35714 24.4285H17.6429C18.0028 24.4285 18.348 24.2856 18.6025 24.031C18.857 23.7765 19 23.4313 19 23.0714V19C19 18.7895 18.951 18.5818 18.8568 18.3936Z" fill="white"/>
</g>
</svg>
