<svg width="20" height="25" viewBox="0 0 20 25" fill="none" xmlns="http://www.w3.org/2000/svg">
<path d="M18.8889 0H3.33333C2.45007 0.00257957 1.60372 0.354597 0.97916 0.97916C0.354597 1.60372 0.00257957 2.45007 0 3.33333V21.1111C0.00257957 21.9944 0.354597 22.8407 0.97916 23.4653C1.60372 24.0898 2.45007 24.4419 3.33333 24.4444H18.8889C19.1833 24.4436 19.4654 24.3263 19.6736 24.1181C19.8818 23.9099 19.9992 23.6278 20 23.3333V22.2222H3.33333C3.03865 22.2222 2.75603 22.1052 2.54766 21.8968C2.33929 21.6884 2.22222 21.4058 2.22222 21.1111C2.22222 20.8164 2.33929 20.5338 2.54766 20.3254C2.75603 20.1171 3.03865 20 3.33333 20H20V1.11111C19.9992 0.816688 19.8818 0.534566 19.6736 0.326376C19.4654 0.118186 19.1833 0.000850136 18.8889 0ZM6.66667 2.22222V17.7778H4.44444V2.22222H6.66667Z" fill="white"/>
</svg>
