<svg width="22" height="22" viewBox="0 0 22 22" fill="none" xmlns="http://www.w3.org/2000/svg">
<path d="M11 0C8.82441 0 6.69767 0.645139 4.88873 1.85383C3.07979 3.06253 1.66989 4.78049 0.83733 6.79048C0.00476617 8.80047 -0.213071 11.0122 0.211367 13.146C0.635804 15.2798 1.68345 17.2398 3.22183 18.7782C4.76021 20.3166 6.72022 21.3642 8.85401 21.7886C10.9878 22.2131 13.1995 21.9952 15.2095 21.1627C17.2195 20.3301 18.9375 18.9202 20.1462 17.1113C21.3549 15.3023 22 13.1756 22 11C21.9967 8.08363 20.8367 5.28766 18.7745 3.22548C16.7123 1.1633 13.9164 0.00330842 11 0ZM14.5352 14.5356C14.3477 14.7231 14.0933 14.8284 13.8282 14.8284C13.563 14.8284 13.3086 14.7231 13.1211 14.5356L10.2933 11.7073C10.1077 11.5204 10.0027 11.2682 10.001 11.0048L10 11V7C10 6.73478 10.1054 6.48043 10.2929 6.29289C10.4804 6.10536 10.7348 6 11 6C11.2652 6 11.5196 6.10536 11.7071 6.29289C11.8946 6.48043 12 6.73478 12 7V10.586L14.5352 13.1216C14.7227 13.3091 14.828 13.5634 14.828 13.8286C14.828 14.0938 14.7227 14.3481 14.5352 14.5356Z" fill="white"/>
</svg>
